<?xml version="1.0" encoding="UTF-8" standalone="no"?>
<!DOCTYPE svg PUBLIC "-//W3C//DTD SVG 1.1//EN"
 "http://www.w3.org/Graphics/SVG/1.1/DTD/svg11.dtd">
<!-- Generated by graphviz version 2.43.0 (0)
 -->
<!-- Title: block_header_t Pages: 1 -->
<svg width="93pt" height="222pt"
 viewBox="0.00 0.00 93.00 222.00" xmlns="http://www.w3.org/2000/svg" xmlns:xlink="http://www.w3.org/1999/xlink">
<g id="graph0" class="graph" transform="scale(1 1) rotate(0) translate(4 218)">
<title>block_header_t</title>
<!-- Node1 -->
<g id="Node000001" class="node">
<title>Node1</title>
<g id="a_Node000001"><a xlink:title="Represents the header for a memory block.">
<polygon fill="#999999" stroke="transparent" points="85,-214 0,-214 0,0 85,0 85,-214"/>
<text text-anchor="start" x="5.5" y="-202" font-family="Helvetica,sans-Serif" font-size="10.00">block_header_t</text>
<text text-anchor="start" x="8" y="-187" font-family="Helvetica,sans-Serif" font-size="10.00">+</text>
<text text-anchor="start" x="24.5" y="-187" font-family="Helvetica,sans-Serif" font-size="10.00">magic</text>
<text text-anchor="start" x="8" y="-172" font-family="Helvetica,sans-Serif" font-size="10.00">+</text>
<text text-anchor="start" x="24.5" y="-172" font-family="Helvetica,sans-Serif" font-size="10.00">size</text>
<text text-anchor="start" x="8" y="-157" font-family="Helvetica,sans-Serif" font-size="10.00">+</text>
<text text-anchor="start" x="24.5" y="-157" font-family="Helvetica,sans-Serif" font-size="10.00">free</text>
<text text-anchor="start" x="8" y="-142" font-family="Helvetica,sans-Serif" font-size="10.00">+</text>
<text text-anchor="start" x="24.5" y="-142" font-family="Helvetica,sans-Serif" font-size="10.00">marked</text>
<text text-anchor="start" x="8" y="-127" font-family="Helvetica,sans-Serif" font-size="10.00">+</text>
<text text-anchor="start" x="24.5" y="-127" font-family="Helvetica,sans-Serif" font-size="10.00">var_name</text>
<text text-anchor="start" x="8" y="-112" font-family="Helvetica,sans-Serif" font-size="10.00">+</text>
<text text-anchor="start" x="24.5" y="-112" font-family="Helvetica,sans-Serif" font-size="10.00">file</text>
<text text-anchor="start" x="8" y="-97" font-family="Helvetica,sans-Serif" font-size="10.00">+</text>
<text text-anchor="start" x="24.5" y="-97" font-family="Helvetica,sans-Serif" font-size="10.00">line</text>
<text text-anchor="start" x="8" y="-82" font-family="Helvetica,sans-Serif" font-size="10.00">+</text>
<text text-anchor="start" x="24.5" y="-82" font-family="Helvetica,sans-Serif" font-size="10.00">canary</text>
<text text-anchor="start" x="8" y="-67" font-family="Helvetica,sans-Serif" font-size="10.00">+</text>
<text text-anchor="start" x="24.5" y="-67" font-family="Helvetica,sans-Serif" font-size="10.00">next</text>
<text text-anchor="start" x="8" y="-52" font-family="Helvetica,sans-Serif" font-size="10.00">+</text>
<text text-anchor="start" x="24.5" y="-52" font-family="Helvetica,sans-Serif" font-size="10.00">prev</text>
<text text-anchor="start" x="8" y="-37" font-family="Helvetica,sans-Serif" font-size="10.00">+</text>
<text text-anchor="start" x="24.5" y="-37" font-family="Helvetica,sans-Serif" font-size="10.00">fl_next</text>
<text text-anchor="start" x="8" y="-22" font-family="Helvetica,sans-Serif" font-size="10.00">+</text>
<text text-anchor="start" x="24.5" y="-22" font-family="Helvetica,sans-Serif" font-size="10.00">fl_prev</text>
<text text-anchor="start" x="41" y="-7" font-family="Helvetica,sans-Serif" font-size="10.00"> </text>
<polygon fill="#666666" stroke="#666666" points="0.5,-197 0.5,-197 85.5,-197 85.5,-197 0.5,-197"/>
<polygon fill="#666666" stroke="#666666" points="0.5,-17 0.5,-17 22.5,-17 22.5,-17 0.5,-17"/>
<polygon fill="#666666" stroke="#666666" points="22.5,-17 22.5,-17 85.5,-17 85.5,-17 22.5,-17"/>
<polygon fill="none" stroke="#666666" points="0,0 0,-214 85,-214 85,0 0,0"/>
</a>
</g>
</g>
</g>
</svg>
