<?xml version="1.0" encoding="UTF-8" standalone="no"?>
<!DOCTYPE svg PUBLIC "-//W3C//DTD SVG 1.1//EN"
 "http://www.w3.org/Graphics/SVG/1.1/DTD/svg11.dtd">
<!-- Generated by graphviz version 2.43.0 (0)
 -->
<!-- Title: mem_arena_t Pages: 1 -->
<svg width="110pt" height="329pt"
 viewBox="0.00 0.00 109.50 329.00" xmlns="http://www.w3.org/2000/svg" xmlns:xlink="http://www.w3.org/1999/xlink">
<g id="graph0" class="graph" transform="scale(1 1) rotate(0) translate(4 325)">
<title>mem_arena_t</title>
<!-- Node1 -->
<g id="Node000001" class="node">
<title>Node1</title>
<g id="a_Node000001"><a xlink:title="Represents a memory arena with its own free lists.">
<polygon fill="#999999" stroke="transparent" points="81.5,-49 3.5,-49 3.5,0 81.5,0 81.5,-49"/>
<text text-anchor="start" x="8.5" y="-36.5" font-family="Helvetica,sans-Serif" font-size="10.00">mem_arena_t</text>
<text text-anchor="start" x="9.5" y="-21.5" font-family="Helvetica,sans-Serif" font-size="10.00">+</text>
<text text-anchor="start" x="24.5" y="-21.5" font-family="Helvetica,sans-Serif" font-size="10.00">num_bins</text>
<text text-anchor="start" x="40.5" y="-6.5" font-family="Helvetica,sans-Serif" font-size="10.00"> </text>
<polygon fill="#666666" stroke="#666666" points="3.5,-31.5 3.5,-31.5 81.5,-31.5 81.5,-31.5 3.5,-31.5"/>
<polygon fill="#666666" stroke="#666666" points="3.5,-16.5 3.5,-16.5 22.5,-16.5 22.5,-16.5 3.5,-16.5"/>
<polygon fill="#666666" stroke="#666666" points="22.5,-16.5 22.5,-16.5 81.5,-16.5 81.5,-16.5 22.5,-16.5"/>
<polygon fill="none" stroke="#666666" points="3.5,0 3.5,-49 81.5,-49 81.5,0 3.5,0"/>
</a>
</g>
</g>
<!-- Node2 -->
<g id="Node000002" class="node">
<title>Node2</title>
<g id="a_Node000002"><a xlink:href="structblock__header__t.html" target="_top" xlink:title="Represents the header for a memory block.">
<polygon fill="white" stroke="transparent" points="85,-321 0,-321 0,-107 85,-107 85,-321"/>
<text text-anchor="start" x="5.5" y="-309" font-family="Helvetica,sans-Serif" font-size="10.00">block_header_t</text>
<text text-anchor="start" x="8" y="-294" font-family="Helvetica,sans-Serif" font-size="10.00">+</text>
<text text-anchor="start" x="24.5" y="-294" font-family="Helvetica,sans-Serif" font-size="10.00">magic</text>
<text text-anchor="start" x="8" y="-279" font-family="Helvetica,sans-Serif" font-size="10.00">+</text>
<text text-anchor="start" x="24.5" y="-279" font-family="Helvetica,sans-Serif" font-size="10.00">size</text>
<text text-anchor="start" x="8" y="-264" font-family="Helvetica,sans-Serif" font-size="10.00">+</text>
<text text-anchor="start" x="24.5" y="-264" font-family="Helvetica,sans-Serif" font-size="10.00">free</text>
<text text-anchor="start" x="8" y="-249" font-family="Helvetica,sans-Serif" font-size="10.00">+</text>
<text text-anchor="start" x="24.5" y="-249" font-family="Helvetica,sans-Serif" font-size="10.00">marked</text>
<text text-anchor="start" x="8" y="-234" font-family="Helvetica,sans-Serif" font-size="10.00">+</text>
<text text-anchor="start" x="24.5" y="-234" font-family="Helvetica,sans-Serif" font-size="10.00">var_name</text>
<text text-anchor="start" x="8" y="-219" font-family="Helvetica,sans-Serif" font-size="10.00">+</text>
<text text-anchor="start" x="24.5" y="-219" font-family="Helvetica,sans-Serif" font-size="10.00">file</text>
<text text-anchor="start" x="8" y="-204" font-family="Helvetica,sans-Serif" font-size="10.00">+</text>
<text text-anchor="start" x="24.5" y="-204" font-family="Helvetica,sans-Serif" font-size="10.00">line</text>
<text text-anchor="start" x="8" y="-189" font-family="Helvetica,sans-Serif" font-size="10.00">+</text>
<text text-anchor="start" x="24.5" y="-189" font-family="Helvetica,sans-Serif" font-size="10.00">canary</text>
<text text-anchor="start" x="8" y="-174" font-family="Helvetica,sans-Serif" font-size="10.00">+</text>
<text text-anchor="start" x="24.5" y="-174" font-family="Helvetica,sans-Serif" font-size="10.00">next</text>
<text text-anchor="start" x="8" y="-159" font-family="Helvetica,sans-Serif" font-size="10.00">+</text>
<text text-anchor="start" x="24.5" y="-159" font-family="Helvetica,sans-Serif" font-size="10.00">prev</text>
<text text-anchor="start" x="8" y="-144" font-family="Helvetica,sans-Serif" font-size="10.00">+</text>
<text text-anchor="start" x="24.5" y="-144" font-family="Helvetica,sans-Serif" font-size="10.00">fl_next</text>
<text text-anchor="start" x="8" y="-129" font-family="Helvetica,sans-Serif" font-size="10.00">+</text>
<text text-anchor="start" x="24.5" y="-129" font-family="Helvetica,sans-Serif" font-size="10.00">fl_prev</text>
<text text-anchor="start" x="41" y="-114" font-family="Helvetica,sans-Serif" font-size="10.00"> </text>
<polygon fill="#666666" stroke="#666666" points="0.5,-304 0.5,-304 85.5,-304 85.5,-304 0.5,-304"/>
<polygon fill="#666666" stroke="#666666" points="0.5,-124 0.5,-124 22.5,-124 22.5,-124 0.5,-124"/>
<polygon fill="#666666" stroke="#666666" points="22.5,-124 22.5,-124 85.5,-124 85.5,-124 22.5,-124"/>
<polygon fill="none" stroke="#666666" points="0,-107 0,-321 85,-321 85,-107 0,-107"/>
</a>
</g>
</g>
<!-- Node2&#45;&gt;Node1 -->
<g id="edge1_Node000001_Node000002" class="edge">
<title>Node2&#45;&gt;Node1</title>
<g id="a_edge1_Node000001_Node000002"><a xlink:title=" ">
<path fill="none" stroke="#63b8ff" d="M42.5,-106.92C42.5,-90.64 42.5,-74.86 42.5,-61.6"/>
<polygon fill="none" stroke="#63b8ff" points="42.5,-61.25 38.5,-55.25 42.5,-49.25 46.5,-55.25 42.5,-61.25"/>
</a>
</g>
<text text-anchor="middle" x="72" y="-81" font-family="Helvetica,sans-Serif" font-size="10.00" fill="grey"> +bins</text>
<text text-anchor="middle" x="72" y="-70" font-family="Helvetica,sans-Serif" font-size="10.00" fill="grey">+top_chunk</text>
</g>
</g>
</svg>
