<?xml version="1.0" encoding="UTF-8" standalone="no"?>
<!DOCTYPE svg PUBLIC "-//W3C//DTD SVG 1.1//EN"
 "http://www.w3.org/Graphics/SVG/1.1/DTD/svg11.dtd">
<!-- Generated by graphviz version 2.43.0 (0)
 -->
<!-- Title: mem_allocator_t Pages: 1 -->
<svg width="404pt" height="620pt"
 viewBox="0.00 0.00 404.00 620.00" xmlns="http://www.w3.org/2000/svg" xmlns:xlink="http://www.w3.org/1999/xlink">
<g id="graph0" class="graph" transform="scale(1 1) rotate(0) translate(4 616)">
<title>mem_allocator_t</title>
<!-- Node1 -->
<g id="Node000001" class="node">
<title>Node1</title>
<g id="a_Node000001"><a xlink:title="Manages dynamic memory allocation.">
<polygon fill="#999999" stroke="transparent" points="263,-139 154,-139 154,0 263,0 263,-139"/>
<text text-anchor="start" x="167.5" y="-126.5" font-family="Helvetica,sans-Serif" font-size="10.00">mem_allocator_t</text>
<text text-anchor="start" x="158.5" y="-111.5" font-family="Helvetica,sans-Serif" font-size="10.00">+</text>
<text text-anchor="start" x="171.5" y="-111.5" font-family="Helvetica,sans-Serif" font-size="10.00">heap_start</text>
<text text-anchor="start" x="158.5" y="-96.5" font-family="Helvetica,sans-Serif" font-size="10.00">+</text>
<text text-anchor="start" x="171.5" y="-96.5" font-family="Helvetica,sans-Serif" font-size="10.00">heap_end</text>
<text text-anchor="start" x="158.5" y="-81.5" font-family="Helvetica,sans-Serif" font-size="10.00">+</text>
<text text-anchor="start" x="171.5" y="-81.5" font-family="Helvetica,sans-Serif" font-size="10.00">metadata_size</text>
<text text-anchor="start" x="158.5" y="-66.5" font-family="Helvetica,sans-Serif" font-size="10.00">+</text>
<text text-anchor="start" x="171.5" y="-66.5" font-family="Helvetica,sans-Serif" font-size="10.00">stack_top</text>
<text text-anchor="start" x="158.5" y="-51.5" font-family="Helvetica,sans-Serif" font-size="10.00">+</text>
<text text-anchor="start" x="171.5" y="-51.5" font-family="Helvetica,sans-Serif" font-size="10.00">stack_bottom</text>
<text text-anchor="start" x="158.5" y="-36.5" font-family="Helvetica,sans-Serif" font-size="10.00">+</text>
<text text-anchor="start" x="171.5" y="-36.5" font-family="Helvetica,sans-Serif" font-size="10.00">num_size_classes</text>
<text text-anchor="start" x="158.5" y="-21.5" font-family="Helvetica,sans-Serif" font-size="10.00">+</text>
<text text-anchor="start" x="171.5" y="-21.5" font-family="Helvetica,sans-Serif" font-size="10.00">num_arenas</text>
<text text-anchor="start" x="207" y="-6.5" font-family="Helvetica,sans-Serif" font-size="10.00"> </text>
<polygon fill="#666666" stroke="#666666" points="154.5,-121.5 154.5,-121.5 263.5,-121.5 263.5,-121.5 154.5,-121.5"/>
<polygon fill="#666666" stroke="#666666" points="154.5,-16.5 154.5,-16.5 169.5,-16.5 169.5,-16.5 154.5,-16.5"/>
<polygon fill="#666666" stroke="#666666" points="169.5,-16.5 169.5,-16.5 263.5,-16.5 263.5,-16.5 169.5,-16.5"/>
<polygon fill="none" stroke="#666666" points="154,0 154,-139 263,-139 263,0 154,0"/>
</a>
</g>
</g>
<!-- Node2 -->
<g id="Node000002" class="node">
<title>Node2</title>
<g id="a_Node000002"><a xlink:href="structblock__header__t.html" target="_top" xlink:title="Represents the header for a memory block.">
<polygon fill="white" stroke="transparent" points="85,-612 0,-612 0,-398 85,-398 85,-612"/>
<text text-anchor="start" x="5.5" y="-600" font-family="Helvetica,sans-Serif" font-size="10.00">block_header_t</text>
<text text-anchor="start" x="8" y="-585" font-family="Helvetica,sans-Serif" font-size="10.00">+</text>
<text text-anchor="start" x="24.5" y="-585" font-family="Helvetica,sans-Serif" font-size="10.00">magic</text>
<text text-anchor="start" x="8" y="-570" font-family="Helvetica,sans-Serif" font-size="10.00">+</text>
<text text-anchor="start" x="24.5" y="-570" font-family="Helvetica,sans-Serif" font-size="10.00">size</text>
<text text-anchor="start" x="8" y="-555" font-family="Helvetica,sans-Serif" font-size="10.00">+</text>
<text text-anchor="start" x="24.5" y="-555" font-family="Helvetica,sans-Serif" font-size="10.00">free</text>
<text text-anchor="start" x="8" y="-540" font-family="Helvetica,sans-Serif" font-size="10.00">+</text>
<text text-anchor="start" x="24.5" y="-540" font-family="Helvetica,sans-Serif" font-size="10.00">marked</text>
<text text-anchor="start" x="8" y="-525" font-family="Helvetica,sans-Serif" font-size="10.00">+</text>
<text text-anchor="start" x="24.5" y="-525" font-family="Helvetica,sans-Serif" font-size="10.00">var_name</text>
<text text-anchor="start" x="8" y="-510" font-family="Helvetica,sans-Serif" font-size="10.00">+</text>
<text text-anchor="start" x="24.5" y="-510" font-family="Helvetica,sans-Serif" font-size="10.00">file</text>
<text text-anchor="start" x="8" y="-495" font-family="Helvetica,sans-Serif" font-size="10.00">+</text>
<text text-anchor="start" x="24.5" y="-495" font-family="Helvetica,sans-Serif" font-size="10.00">line</text>
<text text-anchor="start" x="8" y="-480" font-family="Helvetica,sans-Serif" font-size="10.00">+</text>
<text text-anchor="start" x="24.5" y="-480" font-family="Helvetica,sans-Serif" font-size="10.00">canary</text>
<text text-anchor="start" x="8" y="-465" font-family="Helvetica,sans-Serif" font-size="10.00">+</text>
<text text-anchor="start" x="24.5" y="-465" font-family="Helvetica,sans-Serif" font-size="10.00">next</text>
<text text-anchor="start" x="8" y="-450" font-family="Helvetica,sans-Serif" font-size="10.00">+</text>
<text text-anchor="start" x="24.5" y="-450" font-family="Helvetica,sans-Serif" font-size="10.00">prev</text>
<text text-anchor="start" x="8" y="-435" font-family="Helvetica,sans-Serif" font-size="10.00">+</text>
<text text-anchor="start" x="24.5" y="-435" font-family="Helvetica,sans-Serif" font-size="10.00">fl_next</text>
<text text-anchor="start" x="8" y="-420" font-family="Helvetica,sans-Serif" font-size="10.00">+</text>
<text text-anchor="start" x="24.5" y="-420" font-family="Helvetica,sans-Serif" font-size="10.00">fl_prev</text>
<text text-anchor="start" x="41" y="-405" font-family="Helvetica,sans-Serif" font-size="10.00"> </text>
<polygon fill="#666666" stroke="#666666" points="0.5,-595 0.5,-595 85.5,-595 85.5,-595 0.5,-595"/>
<polygon fill="#666666" stroke="#666666" points="0.5,-415 0.5,-415 22.5,-415 22.5,-415 0.5,-415"/>
<polygon fill="#666666" stroke="#666666" points="22.5,-415 22.5,-415 85.5,-415 85.5,-415 22.5,-415"/>
<polygon fill="none" stroke="#666666" points="0,-398 0,-612 85,-612 85,-398 0,-398"/>
</a>
</g>
</g>
<!-- Node2&#45;&gt;Node1 -->
<g id="edge1_Node000001_Node000002" class="edge">
<title>Node2&#45;&gt;Node1</title>
<g id="a_edge1_Node000001_Node000002"><a xlink:title=" ">
<path fill="none" stroke="#63b8ff" d="M14.97,-397.69C4.06,-332.82 1.13,-250.28 35.5,-186 58.13,-143.68 103.88,-114.18 142.65,-95.58"/>
<polygon fill="none" stroke="#63b8ff" points="143,-95.42 146.77,-89.28 153.9,-90.4 150.12,-96.54 143,-95.42"/>
</a>
</g>
<text text-anchor="middle" x="74" y="-266" font-family="Helvetica,sans-Serif" font-size="10.00" fill="grey"> +free_lists</text>
<text text-anchor="middle" x="74" y="-255" font-family="Helvetica,sans-Serif" font-size="10.00" fill="grey">+last_allocated</text>
</g>
<!-- Node3 -->
<g id="Node000003" class="node">
<title>Node3</title>
<g id="a_Node000003"><a xlink:href="structmem__arena__t.html" target="_top" xlink:title="Represents a memory arena with its own free lists.">
<polygon fill="white" stroke="transparent" points="199.5,-287.5 121.5,-287.5 121.5,-238.5 199.5,-238.5 199.5,-287.5"/>
<text text-anchor="start" x="126.5" y="-275" font-family="Helvetica,sans-Serif" font-size="10.00">mem_arena_t</text>
<text text-anchor="start" x="127.5" y="-260" font-family="Helvetica,sans-Serif" font-size="10.00">+</text>
<text text-anchor="start" x="142.5" y="-260" font-family="Helvetica,sans-Serif" font-size="10.00">num_bins</text>
<text text-anchor="start" x="158.5" y="-245" font-family="Helvetica,sans-Serif" font-size="10.00"> </text>
<polygon fill="#666666" stroke="#666666" points="121.5,-270 121.5,-270 199.5,-270 199.5,-270 121.5,-270"/>
<polygon fill="#666666" stroke="#666666" points="121.5,-255 121.5,-255 140.5,-255 140.5,-255 121.5,-255"/>
<polygon fill="#666666" stroke="#666666" points="140.5,-255 140.5,-255 199.5,-255 199.5,-255 140.5,-255"/>
<polygon fill="none" stroke="#666666" points="121.5,-238.5 121.5,-287.5 199.5,-287.5 199.5,-238.5 121.5,-238.5"/>
</a>
</g>
</g>
<!-- Node2&#45;&gt;Node3 -->
<g id="edge3_Node000003_Node000002" class="edge">
<title>Node2&#45;&gt;Node3</title>
<g id="a_edge3_Node000003_Node000002"><a xlink:title=" ">
<path fill="none" stroke="#63b8ff" d="M85.1,-417.35C105.3,-376.28 128.28,-329.54 143.5,-298.57"/>
<polygon fill="none" stroke="#63b8ff" points="143.64,-298.29 142.7,-291.14 148.94,-287.52 149.88,-294.67 143.64,-298.29"/>
</a>
</g>
<text text-anchor="middle" x="142" y="-372" font-family="Helvetica,sans-Serif" font-size="10.00" fill="grey"> +bins</text>
<text text-anchor="middle" x="142" y="-361" font-family="Helvetica,sans-Serif" font-size="10.00" fill="grey">+top_chunk</text>
</g>
<!-- Node3&#45;&gt;Node1 -->
<g id="edge2_Node000001_Node000003" class="edge">
<title>Node3&#45;&gt;Node1</title>
<g id="a_edge2_Node000001_Node000003"><a xlink:title=" ">
<path fill="none" stroke="#63b8ff" d="M162.36,-238.35C164.41,-216.87 168.4,-184.45 175.5,-157 176.01,-155.02 176.55,-153.02 177.12,-151.02"/>
<polygon fill="none" stroke="#63b8ff" points="177.15,-150.94 175.07,-144.04 180.64,-139.46 182.72,-146.37 177.15,-150.94"/>
</a>
</g>
<text text-anchor="middle" x="198" y="-160" font-family="Helvetica,sans-Serif" font-size="10.00" fill="grey"> +arenas</text>
</g>
<!-- Node4 -->
<g id="Node000004" class="node">
<title>Node4</title>
<g id="a_Node000004"><a xlink:href="structmmap__t.html" target="_top" xlink:title="Tracks memory&#45;mapped regions for large allocations.">
<polygon fill="white" stroke="transparent" points="269,-302.5 218,-302.5 218,-223.5 269,-223.5 269,-302.5"/>
<text text-anchor="start" x="223.5" y="-290" font-family="Helvetica,sans-Serif" font-size="10.00">mmap_t</text>
<text text-anchor="start" x="224.5" y="-275" font-family="Helvetica,sans-Serif" font-size="10.00">+</text>
<text text-anchor="start" x="239.5" y="-275" font-family="Helvetica,sans-Serif" font-size="10.00">addr</text>
<text text-anchor="start" x="224.5" y="-260" font-family="Helvetica,sans-Serif" font-size="10.00">+</text>
<text text-anchor="start" x="239.5" y="-260" font-family="Helvetica,sans-Serif" font-size="10.00">size</text>
<text text-anchor="start" x="224.5" y="-245" font-family="Helvetica,sans-Serif" font-size="10.00">+</text>
<text text-anchor="start" x="239.5" y="-245" font-family="Helvetica,sans-Serif" font-size="10.00">next</text>
<text text-anchor="start" x="242" y="-230" font-family="Helvetica,sans-Serif" font-size="10.00"> </text>
<polygon fill="#666666" stroke="#666666" points="218.5,-285 218.5,-285 269.5,-285 269.5,-285 218.5,-285"/>
<polygon fill="#666666" stroke="#666666" points="218.5,-240 218.5,-240 237.5,-240 237.5,-240 218.5,-240"/>
<polygon fill="#666666" stroke="#666666" points="237.5,-240 237.5,-240 269.5,-240 269.5,-240 237.5,-240"/>
<polygon fill="none" stroke="#666666" points="218,-223.5 218,-302.5 269,-302.5 269,-223.5 218,-223.5"/>
</a>
</g>
</g>
<!-- Node4&#45;&gt;Node1 -->
<g id="edge4_Node000001_Node000004" class="edge">
<title>Node4&#45;&gt;Node1</title>
<g id="a_edge4_Node000001_Node000004"><a xlink:title=" ">
<path fill="none" stroke="#63b8ff" d="M236.42,-223.25C232.62,-202.49 227.8,-176.12 223.24,-151.15"/>
<polygon fill="none" stroke="#63b8ff" points="223.18,-150.84 218.17,-145.65 221.03,-139.03 226.04,-144.21 223.18,-150.84"/>
</a>
</g>
<text text-anchor="middle" x="257.5" y="-160" font-family="Helvetica,sans-Serif" font-size="10.00" fill="grey"> +mmap_list</text>
</g>
<!-- Node5 -->
<g id="Node000005" class="node">
<title>Node5</title>
<g id="a_Node000005"><a xlink:href="structgc__thread__t.html" target="_top" xlink:title="Orchestrates the background mark&#45;and&#45;sweep garbage collector.">
<polygon fill="white" stroke="transparent" points="396,-340 287,-340 287,-186 396,-186 396,-340"/>
<text text-anchor="start" x="313" y="-328" font-family="Helvetica,sans-Serif" font-size="10.00">gc_thread_t</text>
<text text-anchor="start" x="291.5" y="-313" font-family="Helvetica,sans-Serif" font-size="10.00">+</text>
<text text-anchor="start" x="304.5" y="-313" font-family="Helvetica,sans-Serif" font-size="10.00">gc_thread</text>
<text text-anchor="start" x="291.5" y="-298" font-family="Helvetica,sans-Serif" font-size="10.00">+</text>
<text text-anchor="start" x="304.5" y="-298" font-family="Helvetica,sans-Serif" font-size="10.00">main_thread</text>
<text text-anchor="start" x="291.5" y="-283" font-family="Helvetica,sans-Serif" font-size="10.00">+</text>
<text text-anchor="start" x="304.5" y="-283" font-family="Helvetica,sans-Serif" font-size="10.00">gc_running</text>
<text text-anchor="start" x="291.5" y="-268" font-family="Helvetica,sans-Serif" font-size="10.00">+</text>
<text text-anchor="start" x="304.5" y="-268" font-family="Helvetica,sans-Serif" font-size="10.00">gc_exit</text>
<text text-anchor="start" x="291.5" y="-253" font-family="Helvetica,sans-Serif" font-size="10.00">+</text>
<text text-anchor="start" x="304.5" y="-253" font-family="Helvetica,sans-Serif" font-size="10.00">gc_interval_ms</text>
<text text-anchor="start" x="291.5" y="-238" font-family="Helvetica,sans-Serif" font-size="10.00">+</text>
<text text-anchor="start" x="304.5" y="-238" font-family="Helvetica,sans-Serif" font-size="10.00">gc_thread_started</text>
<text text-anchor="start" x="291.5" y="-223" font-family="Helvetica,sans-Serif" font-size="10.00">+</text>
<text text-anchor="start" x="304.5" y="-223" font-family="Helvetica,sans-Serif" font-size="10.00">gc_cond</text>
<text text-anchor="start" x="291.5" y="-208" font-family="Helvetica,sans-Serif" font-size="10.00">+</text>
<text text-anchor="start" x="304.5" y="-208" font-family="Helvetica,sans-Serif" font-size="10.00">gc_lock</text>
<text text-anchor="start" x="340" y="-193" font-family="Helvetica,sans-Serif" font-size="10.00"> </text>
<polygon fill="#666666" stroke="#666666" points="287.5,-323 287.5,-323 396.5,-323 396.5,-323 287.5,-323"/>
<polygon fill="#666666" stroke="#666666" points="287.5,-203 287.5,-203 302.5,-203 302.5,-203 287.5,-203"/>
<polygon fill="#666666" stroke="#666666" points="302.5,-203 302.5,-203 396.5,-203 396.5,-203 302.5,-203"/>
<polygon fill="none" stroke="#666666" points="287,-186 287,-340 396,-340 396,-186 287,-186"/>
</a>
</g>
</g>
<!-- Node5&#45;&gt;Node1 -->
<g id="edge5_Node000001_Node000005" class="edge">
<title>Node5&#45;&gt;Node1</title>
<g id="a_edge5_Node000001_Node000005"><a xlink:title=" ">
<path fill="none" stroke="#63b8ff" d="M310.61,-185.98C305.42,-175.93 299.69,-166 293.5,-157 287.03,-147.6 279.5,-138.31 271.63,-129.5"/>
<polygon fill="none" stroke="#63b8ff" points="271.48,-129.33 264.47,-127.62 263.35,-120.5 270.36,-122.2 271.48,-129.33"/>
</a>
</g>
<text text-anchor="middle" x="329.5" y="-160" font-family="Helvetica,sans-Serif" font-size="10.00" fill="grey"> +gc_thread</text>
</g>
</g>
</svg>
